<mxfile host="app.diagrams.net" modified="2021-09-22T14:12:07.438Z" agent="5.0 (Windows NT 10.0; Win64; x64) AppleWebKit/537.36 (KHTML, like Gecko) Chrome/93.0.4577.82 Safari/537.36 Edg/93.0.961.52" etag="_COYrpXbCLrD43URJq-h" version="15.2.9" type="github">
  <diagram id="C5RBs43oDa-KdzZeNtuy" name="Page-1">
    <mxGraphModel dx="1038" dy="579" grid="1" gridSize="10" guides="1" tooltips="1" connect="1" arrows="1" fold="1" page="1" pageScale="1" pageWidth="827" pageHeight="1169" math="0" shadow="0">
      <root>
        <mxCell id="WIyWlLk6GJQsqaUBKTNV-0" />
        <mxCell id="WIyWlLk6GJQsqaUBKTNV-1" parent="WIyWlLk6GJQsqaUBKTNV-0" />
        <mxCell id="y83_9MthE7ld0JMDKoyE-3" style="edgeStyle=orthogonalEdgeStyle;rounded=0;orthogonalLoop=1;jettySize=auto;html=1;entryX=0.5;entryY=1;entryDx=0;entryDy=0;" edge="1" parent="WIyWlLk6GJQsqaUBKTNV-1" source="y83_9MthE7ld0JMDKoyE-0" target="y83_9MthE7ld0JMDKoyE-1">
          <mxGeometry relative="1" as="geometry" />
        </mxCell>
        <mxCell id="y83_9MthE7ld0JMDKoyE-6" style="edgeStyle=orthogonalEdgeStyle;rounded=0;orthogonalLoop=1;jettySize=auto;html=1;entryX=1;entryY=0.5;entryDx=0;entryDy=0;" edge="1" parent="WIyWlLk6GJQsqaUBKTNV-1" source="y83_9MthE7ld0JMDKoyE-0" target="y83_9MthE7ld0JMDKoyE-5">
          <mxGeometry relative="1" as="geometry" />
        </mxCell>
        <mxCell id="y83_9MthE7ld0JMDKoyE-10" style="edgeStyle=orthogonalEdgeStyle;rounded=0;orthogonalLoop=1;jettySize=auto;html=1;entryX=0.5;entryY=0;entryDx=0;entryDy=0;" edge="1" parent="WIyWlLk6GJQsqaUBKTNV-1" source="y83_9MthE7ld0JMDKoyE-0" target="y83_9MthE7ld0JMDKoyE-9">
          <mxGeometry relative="1" as="geometry" />
        </mxCell>
        <mxCell id="y83_9MthE7ld0JMDKoyE-0" value="Home" style="rounded=1;whiteSpace=wrap;html=1;" vertex="1" parent="WIyWlLk6GJQsqaUBKTNV-1">
          <mxGeometry x="354" y="120" width="120" height="60" as="geometry" />
        </mxCell>
        <mxCell id="y83_9MthE7ld0JMDKoyE-4" style="edgeStyle=orthogonalEdgeStyle;rounded=0;orthogonalLoop=1;jettySize=auto;html=1;" edge="1" parent="WIyWlLk6GJQsqaUBKTNV-1" source="y83_9MthE7ld0JMDKoyE-1">
          <mxGeometry relative="1" as="geometry">
            <mxPoint x="560" y="50" as="targetPoint" />
          </mxGeometry>
        </mxCell>
        <mxCell id="y83_9MthE7ld0JMDKoyE-1" value="Quit" style="rhombus;whiteSpace=wrap;html=1;" vertex="1" parent="WIyWlLk6GJQsqaUBKTNV-1">
          <mxGeometry x="374" y="10" width="80" height="80" as="geometry" />
        </mxCell>
        <mxCell id="y83_9MthE7ld0JMDKoyE-8" style="edgeStyle=orthogonalEdgeStyle;rounded=0;orthogonalLoop=1;jettySize=auto;html=1;entryX=1;entryY=0.5;entryDx=0;entryDy=0;" edge="1" parent="WIyWlLk6GJQsqaUBKTNV-1" source="y83_9MthE7ld0JMDKoyE-5" target="y83_9MthE7ld0JMDKoyE-7">
          <mxGeometry relative="1" as="geometry" />
        </mxCell>
        <mxCell id="y83_9MthE7ld0JMDKoyE-5" value="Credits" style="rhombus;whiteSpace=wrap;html=1;" vertex="1" parent="WIyWlLk6GJQsqaUBKTNV-1">
          <mxGeometry x="230" y="110" width="80" height="80" as="geometry" />
        </mxCell>
        <mxCell id="y83_9MthE7ld0JMDKoyE-7" value="Credits" style="rounded=1;whiteSpace=wrap;html=1;" vertex="1" parent="WIyWlLk6GJQsqaUBKTNV-1">
          <mxGeometry x="30" y="120" width="120" height="60" as="geometry" />
        </mxCell>
        <mxCell id="y83_9MthE7ld0JMDKoyE-12" style="edgeStyle=orthogonalEdgeStyle;rounded=0;orthogonalLoop=1;jettySize=auto;html=1;entryX=0.5;entryY=0;entryDx=0;entryDy=0;" edge="1" parent="WIyWlLk6GJQsqaUBKTNV-1" source="y83_9MthE7ld0JMDKoyE-9" target="y83_9MthE7ld0JMDKoyE-11">
          <mxGeometry relative="1" as="geometry" />
        </mxCell>
        <mxCell id="y83_9MthE7ld0JMDKoyE-9" value="Login" style="rhombus;whiteSpace=wrap;html=1;" vertex="1" parent="WIyWlLk6GJQsqaUBKTNV-1">
          <mxGeometry x="374" y="200" width="80" height="80" as="geometry" />
        </mxCell>
        <mxCell id="y83_9MthE7ld0JMDKoyE-15" style="edgeStyle=orthogonalEdgeStyle;rounded=0;orthogonalLoop=1;jettySize=auto;html=1;entryX=0;entryY=0.5;entryDx=0;entryDy=0;" edge="1" parent="WIyWlLk6GJQsqaUBKTNV-1" source="y83_9MthE7ld0JMDKoyE-11" target="y83_9MthE7ld0JMDKoyE-14">
          <mxGeometry relative="1" as="geometry" />
        </mxCell>
        <mxCell id="y83_9MthE7ld0JMDKoyE-21" style="edgeStyle=orthogonalEdgeStyle;rounded=0;orthogonalLoop=1;jettySize=auto;html=1;entryX=1;entryY=0.5;entryDx=0;entryDy=0;" edge="1" parent="WIyWlLk6GJQsqaUBKTNV-1" source="y83_9MthE7ld0JMDKoyE-11" target="y83_9MthE7ld0JMDKoyE-17">
          <mxGeometry relative="1" as="geometry" />
        </mxCell>
        <mxCell id="y83_9MthE7ld0JMDKoyE-26" style="edgeStyle=orthogonalEdgeStyle;rounded=0;orthogonalLoop=1;jettySize=auto;html=1;entryX=0.5;entryY=0;entryDx=0;entryDy=0;" edge="1" parent="WIyWlLk6GJQsqaUBKTNV-1" source="y83_9MthE7ld0JMDKoyE-11" target="y83_9MthE7ld0JMDKoyE-25">
          <mxGeometry relative="1" as="geometry" />
        </mxCell>
        <mxCell id="y83_9MthE7ld0JMDKoyE-11" value="Login" style="rounded=1;whiteSpace=wrap;html=1;" vertex="1" parent="WIyWlLk6GJQsqaUBKTNV-1">
          <mxGeometry x="354" y="320" width="120" height="60" as="geometry" />
        </mxCell>
        <mxCell id="y83_9MthE7ld0JMDKoyE-16" style="edgeStyle=orthogonalEdgeStyle;rounded=0;orthogonalLoop=1;jettySize=auto;html=1;entryX=1;entryY=0.5;entryDx=0;entryDy=0;" edge="1" parent="WIyWlLk6GJQsqaUBKTNV-1" source="y83_9MthE7ld0JMDKoyE-14" target="y83_9MthE7ld0JMDKoyE-0">
          <mxGeometry relative="1" as="geometry">
            <Array as="points">
              <mxPoint x="590" y="150" />
            </Array>
          </mxGeometry>
        </mxCell>
        <mxCell id="y83_9MthE7ld0JMDKoyE-14" value="Back" style="rhombus;whiteSpace=wrap;html=1;" vertex="1" parent="WIyWlLk6GJQsqaUBKTNV-1">
          <mxGeometry x="550" y="310" width="80" height="80" as="geometry" />
        </mxCell>
        <mxCell id="y83_9MthE7ld0JMDKoyE-22" style="edgeStyle=orthogonalEdgeStyle;rounded=0;orthogonalLoop=1;jettySize=auto;html=1;entryX=0;entryY=0;entryDx=0;entryDy=0;exitX=0.5;exitY=0;exitDx=0;exitDy=0;" edge="1" parent="WIyWlLk6GJQsqaUBKTNV-1" source="y83_9MthE7ld0JMDKoyE-17" target="y83_9MthE7ld0JMDKoyE-11">
          <mxGeometry relative="1" as="geometry">
            <mxPoint x="280" y="300" as="sourcePoint" />
            <Array as="points">
              <mxPoint x="280" y="300" />
              <mxPoint x="354" y="300" />
            </Array>
          </mxGeometry>
        </mxCell>
        <mxCell id="y83_9MthE7ld0JMDKoyE-17" value="Denied" style="ellipse;whiteSpace=wrap;html=1;" vertex="1" parent="WIyWlLk6GJQsqaUBKTNV-1">
          <mxGeometry x="250" y="335" width="60" height="30" as="geometry" />
        </mxCell>
        <mxCell id="y83_9MthE7ld0JMDKoyE-28" style="edgeStyle=orthogonalEdgeStyle;rounded=0;orthogonalLoop=1;jettySize=auto;html=1;entryX=0.5;entryY=0;entryDx=0;entryDy=0;" edge="1" parent="WIyWlLk6GJQsqaUBKTNV-1" source="y83_9MthE7ld0JMDKoyE-25" target="y83_9MthE7ld0JMDKoyE-27">
          <mxGeometry relative="1" as="geometry" />
        </mxCell>
        <mxCell id="y83_9MthE7ld0JMDKoyE-25" value="Approved" style="ellipse;whiteSpace=wrap;html=1;" vertex="1" parent="WIyWlLk6GJQsqaUBKTNV-1">
          <mxGeometry x="384" y="410" width="60" height="30" as="geometry" />
        </mxCell>
        <mxCell id="y83_9MthE7ld0JMDKoyE-30" style="edgeStyle=orthogonalEdgeStyle;rounded=0;orthogonalLoop=1;jettySize=auto;html=1;entryX=0;entryY=0.5;entryDx=0;entryDy=0;" edge="1" parent="WIyWlLk6GJQsqaUBKTNV-1" source="y83_9MthE7ld0JMDKoyE-27" target="y83_9MthE7ld0JMDKoyE-29">
          <mxGeometry relative="1" as="geometry" />
        </mxCell>
        <mxCell id="y83_9MthE7ld0JMDKoyE-33" style="edgeStyle=orthogonalEdgeStyle;rounded=0;orthogonalLoop=1;jettySize=auto;html=1;entryX=1;entryY=0.5;entryDx=0;entryDy=0;" edge="1" parent="WIyWlLk6GJQsqaUBKTNV-1" source="y83_9MthE7ld0JMDKoyE-27" target="y83_9MthE7ld0JMDKoyE-32">
          <mxGeometry relative="1" as="geometry" />
        </mxCell>
        <mxCell id="y83_9MthE7ld0JMDKoyE-42" style="edgeStyle=orthogonalEdgeStyle;rounded=0;orthogonalLoop=1;jettySize=auto;html=1;entryX=0.5;entryY=0;entryDx=0;entryDy=0;" edge="1" parent="WIyWlLk6GJQsqaUBKTNV-1" source="y83_9MthE7ld0JMDKoyE-27" target="y83_9MthE7ld0JMDKoyE-41">
          <mxGeometry relative="1" as="geometry" />
        </mxCell>
        <mxCell id="y83_9MthE7ld0JMDKoyE-27" value="Main Menu" style="rounded=1;whiteSpace=wrap;html=1;" vertex="1" parent="WIyWlLk6GJQsqaUBKTNV-1">
          <mxGeometry x="354" y="470" width="120" height="60" as="geometry" />
        </mxCell>
        <mxCell id="y83_9MthE7ld0JMDKoyE-31" style="edgeStyle=orthogonalEdgeStyle;rounded=0;orthogonalLoop=1;jettySize=auto;html=1;entryX=1;entryY=0.5;entryDx=0;entryDy=0;" edge="1" parent="WIyWlLk6GJQsqaUBKTNV-1" source="y83_9MthE7ld0JMDKoyE-29" target="y83_9MthE7ld0JMDKoyE-0">
          <mxGeometry relative="1" as="geometry">
            <Array as="points">
              <mxPoint x="730" y="150" />
            </Array>
          </mxGeometry>
        </mxCell>
        <mxCell id="y83_9MthE7ld0JMDKoyE-29" value="Back" style="rhombus;whiteSpace=wrap;html=1;" vertex="1" parent="WIyWlLk6GJQsqaUBKTNV-1">
          <mxGeometry x="690" y="460" width="80" height="80" as="geometry" />
        </mxCell>
        <mxCell id="y83_9MthE7ld0JMDKoyE-35" style="edgeStyle=orthogonalEdgeStyle;rounded=0;orthogonalLoop=1;jettySize=auto;html=1;entryX=1;entryY=0.5;entryDx=0;entryDy=0;" edge="1" parent="WIyWlLk6GJQsqaUBKTNV-1" source="y83_9MthE7ld0JMDKoyE-32" target="y83_9MthE7ld0JMDKoyE-34">
          <mxGeometry relative="1" as="geometry" />
        </mxCell>
        <mxCell id="y83_9MthE7ld0JMDKoyE-32" value="View characters" style="rhombus;whiteSpace=wrap;html=1;" vertex="1" parent="WIyWlLk6GJQsqaUBKTNV-1">
          <mxGeometry x="230" y="460" width="80" height="80" as="geometry" />
        </mxCell>
        <mxCell id="y83_9MthE7ld0JMDKoyE-38" style="edgeStyle=orthogonalEdgeStyle;rounded=0;orthogonalLoop=1;jettySize=auto;html=1;entryX=0.5;entryY=0;entryDx=0;entryDy=0;" edge="1" parent="WIyWlLk6GJQsqaUBKTNV-1" source="y83_9MthE7ld0JMDKoyE-34" target="y83_9MthE7ld0JMDKoyE-37">
          <mxGeometry relative="1" as="geometry" />
        </mxCell>
        <mxCell id="y83_9MthE7ld0JMDKoyE-49" style="edgeStyle=orthogonalEdgeStyle;rounded=0;orthogonalLoop=1;jettySize=auto;html=1;entryX=0.5;entryY=1;entryDx=0;entryDy=0;" edge="1" parent="WIyWlLk6GJQsqaUBKTNV-1" source="y83_9MthE7ld0JMDKoyE-34" target="y83_9MthE7ld0JMDKoyE-48">
          <mxGeometry relative="1" as="geometry" />
        </mxCell>
        <mxCell id="y83_9MthE7ld0JMDKoyE-34" value="Characters" style="rounded=1;whiteSpace=wrap;html=1;" vertex="1" parent="WIyWlLk6GJQsqaUBKTNV-1">
          <mxGeometry x="60" y="470" width="120" height="60" as="geometry" />
        </mxCell>
        <mxCell id="y83_9MthE7ld0JMDKoyE-40" style="edgeStyle=orthogonalEdgeStyle;rounded=0;orthogonalLoop=1;jettySize=auto;html=1;entryX=0.5;entryY=0;entryDx=0;entryDy=0;" edge="1" parent="WIyWlLk6GJQsqaUBKTNV-1" source="y83_9MthE7ld0JMDKoyE-37" target="y83_9MthE7ld0JMDKoyE-39">
          <mxGeometry relative="1" as="geometry" />
        </mxCell>
        <mxCell id="y83_9MthE7ld0JMDKoyE-37" value="Create character" style="rhombus;whiteSpace=wrap;html=1;" vertex="1" parent="WIyWlLk6GJQsqaUBKTNV-1">
          <mxGeometry x="80" y="560" width="80" height="80" as="geometry" />
        </mxCell>
        <mxCell id="y83_9MthE7ld0JMDKoyE-52" style="edgeStyle=orthogonalEdgeStyle;rounded=0;orthogonalLoop=1;jettySize=auto;html=1;entryX=0;entryY=0.5;entryDx=0;entryDy=0;" edge="1" parent="WIyWlLk6GJQsqaUBKTNV-1" source="y83_9MthE7ld0JMDKoyE-39" target="y83_9MthE7ld0JMDKoyE-51">
          <mxGeometry relative="1" as="geometry" />
        </mxCell>
        <mxCell id="y83_9MthE7ld0JMDKoyE-39" value="Create character" style="rounded=1;whiteSpace=wrap;html=1;" vertex="1" parent="WIyWlLk6GJQsqaUBKTNV-1">
          <mxGeometry x="60" y="680" width="120" height="60" as="geometry" />
        </mxCell>
        <mxCell id="y83_9MthE7ld0JMDKoyE-44" style="edgeStyle=orthogonalEdgeStyle;rounded=0;orthogonalLoop=1;jettySize=auto;html=1;entryX=0.5;entryY=0;entryDx=0;entryDy=0;" edge="1" parent="WIyWlLk6GJQsqaUBKTNV-1" source="y83_9MthE7ld0JMDKoyE-41" target="y83_9MthE7ld0JMDKoyE-43">
          <mxGeometry relative="1" as="geometry" />
        </mxCell>
        <mxCell id="y83_9MthE7ld0JMDKoyE-41" value="Choose character" style="rhombus;whiteSpace=wrap;html=1;" vertex="1" parent="WIyWlLk6GJQsqaUBKTNV-1">
          <mxGeometry x="374" y="585" width="80" height="80" as="geometry" />
        </mxCell>
        <mxCell id="y83_9MthE7ld0JMDKoyE-46" style="edgeStyle=orthogonalEdgeStyle;rounded=0;orthogonalLoop=1;jettySize=auto;html=1;entryX=0;entryY=0.5;entryDx=0;entryDy=0;" edge="1" parent="WIyWlLk6GJQsqaUBKTNV-1" source="y83_9MthE7ld0JMDKoyE-43" target="y83_9MthE7ld0JMDKoyE-45">
          <mxGeometry relative="1" as="geometry" />
        </mxCell>
        <mxCell id="y83_9MthE7ld0JMDKoyE-55" style="edgeStyle=orthogonalEdgeStyle;rounded=0;orthogonalLoop=1;jettySize=auto;html=1;entryX=0.5;entryY=0;entryDx=0;entryDy=0;" edge="1" parent="WIyWlLk6GJQsqaUBKTNV-1" source="y83_9MthE7ld0JMDKoyE-43" target="y83_9MthE7ld0JMDKoyE-54">
          <mxGeometry relative="1" as="geometry" />
        </mxCell>
        <mxCell id="y83_9MthE7ld0JMDKoyE-43" value="Characters" style="rounded=1;whiteSpace=wrap;html=1;" vertex="1" parent="WIyWlLk6GJQsqaUBKTNV-1">
          <mxGeometry x="354" y="700" width="120" height="60" as="geometry" />
        </mxCell>
        <mxCell id="y83_9MthE7ld0JMDKoyE-47" style="edgeStyle=orthogonalEdgeStyle;rounded=0;orthogonalLoop=1;jettySize=auto;html=1;entryX=1;entryY=0.75;entryDx=0;entryDy=0;" edge="1" parent="WIyWlLk6GJQsqaUBKTNV-1" source="y83_9MthE7ld0JMDKoyE-45" target="y83_9MthE7ld0JMDKoyE-27">
          <mxGeometry relative="1" as="geometry">
            <Array as="points">
              <mxPoint x="600" y="515" />
            </Array>
          </mxGeometry>
        </mxCell>
        <mxCell id="y83_9MthE7ld0JMDKoyE-45" value="Back" style="rhombus;whiteSpace=wrap;html=1;" vertex="1" parent="WIyWlLk6GJQsqaUBKTNV-1">
          <mxGeometry x="560" y="690" width="80" height="80" as="geometry" />
        </mxCell>
        <mxCell id="y83_9MthE7ld0JMDKoyE-50" style="edgeStyle=orthogonalEdgeStyle;rounded=0;orthogonalLoop=1;jettySize=auto;html=1;entryX=0;entryY=0;entryDx=0;entryDy=0;" edge="1" parent="WIyWlLk6GJQsqaUBKTNV-1" source="y83_9MthE7ld0JMDKoyE-48" target="y83_9MthE7ld0JMDKoyE-27">
          <mxGeometry relative="1" as="geometry" />
        </mxCell>
        <mxCell id="y83_9MthE7ld0JMDKoyE-48" value="Back" style="rhombus;whiteSpace=wrap;html=1;" vertex="1" parent="WIyWlLk6GJQsqaUBKTNV-1">
          <mxGeometry x="80" y="360" width="80" height="80" as="geometry" />
        </mxCell>
        <mxCell id="y83_9MthE7ld0JMDKoyE-53" style="edgeStyle=orthogonalEdgeStyle;rounded=0;orthogonalLoop=1;jettySize=auto;html=1;entryX=1;entryY=1;entryDx=0;entryDy=0;" edge="1" parent="WIyWlLk6GJQsqaUBKTNV-1" source="y83_9MthE7ld0JMDKoyE-51" target="y83_9MthE7ld0JMDKoyE-34">
          <mxGeometry relative="1" as="geometry">
            <Array as="points">
              <mxPoint x="270" y="600" />
              <mxPoint x="180" y="600" />
            </Array>
          </mxGeometry>
        </mxCell>
        <mxCell id="y83_9MthE7ld0JMDKoyE-51" value="Back" style="rhombus;whiteSpace=wrap;html=1;" vertex="1" parent="WIyWlLk6GJQsqaUBKTNV-1">
          <mxGeometry x="230" y="670" width="80" height="80" as="geometry" />
        </mxCell>
        <mxCell id="y83_9MthE7ld0JMDKoyE-57" style="edgeStyle=orthogonalEdgeStyle;rounded=0;orthogonalLoop=1;jettySize=auto;html=1;entryX=0.5;entryY=0;entryDx=0;entryDy=0;" edge="1" parent="WIyWlLk6GJQsqaUBKTNV-1" source="y83_9MthE7ld0JMDKoyE-54" target="y83_9MthE7ld0JMDKoyE-56">
          <mxGeometry relative="1" as="geometry" />
        </mxCell>
        <mxCell id="y83_9MthE7ld0JMDKoyE-60" style="edgeStyle=orthogonalEdgeStyle;rounded=0;orthogonalLoop=1;jettySize=auto;html=1;entryX=1;entryY=0.5;entryDx=0;entryDy=0;" edge="1" parent="WIyWlLk6GJQsqaUBKTNV-1" source="y83_9MthE7ld0JMDKoyE-54" target="y83_9MthE7ld0JMDKoyE-59">
          <mxGeometry relative="1" as="geometry" />
        </mxCell>
        <mxCell id="y83_9MthE7ld0JMDKoyE-54" value="Chose character" style="rhombus;whiteSpace=wrap;html=1;" vertex="1" parent="WIyWlLk6GJQsqaUBKTNV-1">
          <mxGeometry x="374" y="810" width="80" height="80" as="geometry" />
        </mxCell>
        <mxCell id="y83_9MthE7ld0JMDKoyE-58" style="edgeStyle=orthogonalEdgeStyle;rounded=0;orthogonalLoop=1;jettySize=auto;html=1;" edge="1" parent="WIyWlLk6GJQsqaUBKTNV-1" source="y83_9MthE7ld0JMDKoyE-56">
          <mxGeometry relative="1" as="geometry">
            <mxPoint x="414" y="1120" as="targetPoint" />
          </mxGeometry>
        </mxCell>
        <mxCell id="y83_9MthE7ld0JMDKoyE-56" value="Start" style="rhombus;whiteSpace=wrap;html=1;" vertex="1" parent="WIyWlLk6GJQsqaUBKTNV-1">
          <mxGeometry x="374" y="920" width="80" height="80" as="geometry" />
        </mxCell>
        <mxCell id="y83_9MthE7ld0JMDKoyE-61" style="edgeStyle=orthogonalEdgeStyle;rounded=0;orthogonalLoop=1;jettySize=auto;html=1;entryX=0;entryY=0.75;entryDx=0;entryDy=0;" edge="1" parent="WIyWlLk6GJQsqaUBKTNV-1" source="y83_9MthE7ld0JMDKoyE-59" target="y83_9MthE7ld0JMDKoyE-43">
          <mxGeometry relative="1" as="geometry">
            <Array as="points">
              <mxPoint x="300" y="785" />
              <mxPoint x="334" y="785" />
              <mxPoint x="334" y="745" />
            </Array>
          </mxGeometry>
        </mxCell>
        <mxCell id="y83_9MthE7ld0JMDKoyE-59" value="Back" style="rhombus;whiteSpace=wrap;html=1;" vertex="1" parent="WIyWlLk6GJQsqaUBKTNV-1">
          <mxGeometry x="260" y="810" width="80" height="80" as="geometry" />
        </mxCell>
      </root>
    </mxGraphModel>
  </diagram>
</mxfile>
